<svg width="28" height="33" viewBox="0 0 28 33" fill="none" xmlns="http://www.w3.org/2000/svg">
<path d="M27.8853 22.9266C27.7712 22.758 27.5856 22.6455 27.3773 22.6186C24.6373 22.2767 22.7061 19.877 23.0641 17.2589C23.3169 15.4095 24.6721 13.8695 26.5356 13.3141C26.914 13.1982 27.1224 12.8111 27.0012 12.4496C26.9823 12.3934 26.956 12.3396 26.9227 12.2896C25.6653 10.1214 23.4295 8.63014 20.8658 8.25C19.574 8.30891 18.3008 8.56949 17.097 9.02136C16.2324 9.35382 15.3195 9.55742 14.3903 9.62497C13.4609 9.55742 12.548 9.35382 11.6835 9.02136C10.4796 8.56949 9.20649 8.30891 7.91461 8.25C5.22797 8.25 0 11.8896 0 18.5624C0 24.9038 4.84085 32.9998 8.63415 32.9998C10.0815 33.0121 11.5115 32.6974 12.8073 32.0813C13.2953 31.8241 13.8348 31.6684 14.3903 31.6248C14.9457 31.6684 15.4852 31.8241 15.9732 32.0813C17.2691 32.6974 18.6991 33.0121 20.1465 32.9998C23.154 32.9998 26.5487 28.0663 27.9704 23.4945C28.0299 23.3025 27.9988 23.095 27.8853 22.9266Z" fill="black"/>
<path d="M13.6707 8.24992C18.0397 8.24535 21.5805 4.86223 21.5852 0.687514C21.5852 0.307825 21.2631 0 20.8657 0C16.4966 0.00457613 12.9558 3.38769 12.9512 7.5624C12.9511 7.94209 13.2733 8.24992 13.6707 8.24992Z" fill="black"/>
</svg>
